<?xml version="1.0" encoding="UTF-8"?>
<svg id="Calque_1" data-name="Calque 1" xmlns="http://www.w3.org/2000/svg" viewBox="0 0 138.46 24">
  <defs>
    <style>
      .cls-1 {
        fill: #fff;
        stroke-width: 0px;
      }
    </style>
  </defs>
  <g id="ALDEBARAN">
    <path class="cls-1" d="m138.46,18.38V5.59c0-.61-.5-1.11-1.11-1.11h0c-.61,0-1.11.5-1.11,1.11v8.61l-4.13-9.07c-.18-.4-.58-.65-1.01-.65h-.46c-.61,0-1.11.5-1.11,1.11v12.79c0,.61.5,1.11,1.11,1.11h0c.61,0,1.11-.5,1.11-1.11v-8.59l4.12,9.05c.18.4.58.65,1.01.65h.46c.61,0,1.11-.5,1.11-1.11Z"/>
    <path class="cls-1" d="m125.65,18.13l-2.89-12.77c-.11-.51-.56-.86-1.08-.87h-.37c-.52,0-.97.36-1.09.86l-2.89,12.77c-.16.7.37,1.36,1.08,1.36h0c.52,0,.97-.36,1.08-.87l2-8.91,1.98,8.9c.11.51.56.87,1.08.87h0c.71,0,1.24-.66,1.08-1.36Z"/>
    <path class="cls-1" d="m113.02,18.07l-1.63-5.42c-.04-.12.02-.25.12-.32,1.42-.9,1.93-1.94,1.93-2.97v-1.26c0-1.99-1.91-3.61-4.27-3.61h-3.56c-.61,0-1.11.5-1.11,1.11v12.79c0,.61.5,1.11,1.11,1.11h0c.61,0,1.11-.5,1.11-1.11v-5.44h2.45s1.71,5.75,1.71,5.75c.14.47.57.79,1.06.79h0c.74,0,1.28-.72,1.06-1.43Zm-.91-5.34h0Zm-5.38-6.42h2.44c1.12,0,2.04.8,2.04,1.79v1.26c0,.98-.91,1.79-2.04,1.79h-2.44v-4.84Z"/>
    <path class="cls-1" d="m100.59,18.13l-2.89-12.77c-.11-.51-.56-.86-1.08-.87h-.37c-.52,0-.97.36-1.09.86l-2.89,12.77c-.16.7.37,1.36,1.08,1.36h0c.52,0,.97-.36,1.08-.87l2-8.91,1.98,8.9c.11.51.56.87,1.08.87h0c.71,0,1.24-.66,1.08-1.36Z"/>
    <path class="cls-1" d="m86.97,12.07s-.03-.07,0-.1c.26-.24,1.35-1.3,1.35-2.67v-1.2c0-1.98-1.91-3.59-4.27-3.59h-3.77c-.49,0-.9.4-.9.9v13.2c0,.49.4.9.9.9h3.77c2.35,0,4.27-1.61,4.27-3.59v-1.2c0-1.42-1.08-2.41-1.35-2.63Zm.82-.05s0,0,0,0c0,0,0,0,0,0Zm-6.18.95s.03-.07.07-.07h2.38c1.12,0,2.04.8,2.04,1.79v1.2c0,.98-.91,1.79-2.04,1.79h-2.38s-.07-.03-.07-.07v-4.65Zm0-6.6s.03-.07.07-.07h2.38c1.12,0,2.04.8,2.04,1.79v1.2c0,.98-.91,1.79-2.04,1.79h-2.38s-.07-.03-.07-.07v-4.65Z"/>
    <path class="cls-1" d="m69.23,12.9h4.99c.5,0,.9-.4.9-.9v-.02c0-.5-.4-.9-.9-.9h-4.99s-.07-.03-.07-.07v-4.65s.03-.07.07-.07h5.73c.5,0,.9-.4.9-.9h0c0-.5-.4-.9-.9-.9h-7.13c-.5,0-.9.4-.9.9v13.19c0,.5.4.9.9.9h7.13c.5,0,.9-.4.9-.9h0c0-.5-.4-.9-.9-.9h-5.73s-.07-.03-.07-.07v-4.65s.03-.07.07-.07Z"/>
    <path class="cls-1" d="m54.45,18.58c0,.5.4.9.9.9h3.77c2.35,0,4.27-1.61,4.27-3.59v-7.81c0-1.98-1.91-3.59-4.27-3.59h-3.77c-.5,0-.9.4-.9.9v13.19Zm2.23-12.22s.03-.07.07-.07h2.37c1.12,0,2.04.8,2.04,1.79v7.81c0,.98-.91,1.79-2.04,1.79h-2.37s-.07-.03-.07-.07V6.36Z"/>
    <path class="cls-1" d="m43.3,4.49h-.43c-.5,0-.9.4-.9.9v13.19c0,.5.4.9.9.9h7.13c.5,0,.9-.4.9-.9h0c0-.5-.4-.9-.9-.9h-5.73s-.07-.03-.07-.07V5.39c0-.5-.4-.9-.89-.9Zm.93,0h0,0Zm-2.3,0h0Z"/>
    <path class="cls-1" d="m38.16,18.13l-2.89-12.77c-.11-.51-.56-.86-1.08-.87h-.37c-.52,0-.97.36-1.09.86l-2.89,12.77c-.16.7.37,1.36,1.08,1.36h0c.52,0,.97-.36,1.08-.87l2-8.91,1.98,8.9c.11.51.56.87,1.08.87h0c.71,0,1.24-.66,1.08-1.36Z"/>
  </g>
  <path id="LOGOTYPE" class="cls-1" d="m14.57.54c-.02,2.09.03,4.12.16,6.07.02.26-.2.47-.46.45-1.12-.1-2.24-.14-3.35-.13-.27,0-.5-.2-.53-.47-.17-1.93-.35-3.93-.54-5.97-.03-.32-.34-.55-.65-.47C3.91,1.35,0,6.13,0,11.82c0,4.12,2.05,7.76,5.18,9.96.26.18.63.09.77-.19.85-1.64,1.59-3.28,2.17-4.9.1-.29.36-.5.67-.53,1.13-.11,2.28-.23,3.44-.37.3-.04.55.25.46.54-.68,2.29-1.45,4.59-2.29,6.88-.12.32.09.67.43.71.44.05.89.08,1.34.08,1.89,0,3.68-.43,5.27-1.2.28-.14.39-.49.22-.76-.98-1.55-2.6-4.2-3.5-5.95-.13-.26.03-.57.32-.61.99-.15,1.88-.31,2.7-.49.34-.07.69.08.86.39.75,1.34,1.66,2.74,2.69,4.16.2.28.62.29.83.03,1.74-2.11,2.79-4.8,2.79-7.75C24.35,6.15,20.48,1.39,15.23.03c-.33-.09-.66.17-.66.51Zm3.69,12.42c-3.65.43-7.52.81-11.54,1.15-.29.02-.54-.19-.57-.47-.13-1.27-.26-2.51-.41-3.69-.04-.3.18-.56.48-.59,3.99-.32,7.95-.37,11.91-.14.27.02.48.23.49.5.04.86.07,1.76.11,2.7.01.27-.19.51-.46.54Z"/>
</svg>