<?xml version="1.0" encoding="UTF-8"?>
<svg id="Calque_1" data-name="Calque 1" xmlns="http://www.w3.org/2000/svg" viewBox="0 0 51.21 24.14">
  <defs>
    <style>
      .cls-1 {
        fill: #004e59;
      }

      .cls-1, .cls-2, .cls-3 {
        stroke-width: 0px;
      }

      .cls-2 {
        fill: #00898a;
      }

      .cls-3 {
        fill: none;
      }
    </style>
  </defs>
  <g>
    <path class="cls-1" d="m18.12,3.52V1.46c0-.22.18-.39.39-.39h.01c.22,0,.39.18.39.39v2.02c0,.89.4,1.28,1.1,1.28s1.1-.38,1.1-1.28V1.46c0-.22.18-.39.39-.39h0c.22,0,.39.18.39.39v2.05c0,1.26-.72,1.95-1.9,1.95-1.17.01-1.89-.68-1.89-1.94Z"/>
    <path class="cls-1" d="m26.9,1.47v3.49c0,.25-.2.45-.45.45h0c-.13,0-.26-.06-.35-.16l-2.26-2.77v2.53c0,.22-.18.4-.4.4h0c-.22,0-.4-.18-.4-.4V1.52c0-.25.2-.45.45-.45h0c.13,0,.26.06.35.16l2.26,2.77V1.47c0-.22.18-.4.4-.4h0c.22,0,.4.18.4.4Z"/>
    <path class="cls-1" d="m28.47,1.07h0c.22,0,.4.18.4.4v3.53c0,.22-.18.4-.4.4h0c-.22,0-.4-.18-.4-.4V1.47c0-.22.18-.4.4-.4Z"/>
    <path class="cls-1" d="m30.92,1.75h-1.1c-.19,0-.34-.15-.34-.34h0c0-.19.15-.34.34-.34h3c.19,0,.34.15.34.34h0c0,.19-.15.34-.34.34h-1.1v3.31c0,.19-.15.34-.34.34h-.12c-.19,0-.34-.15-.34-.34V1.75h.01Z"/>
    <path class="cls-1" d="m37.02,5.06h0c0,.19-.15.34-.33.34h-2.51c-.22,0-.41-.18-.41-.41V1.48c0-.22.18-.41.41-.41h2.42c.18,0,.33.15.33.33h0c0,.19-.15.34-.33.34h-2.03v1.13h1.77c.18,0,.33.15.33.33h0c0,.18-.15.33-.33.33h-1.77v1.2h2.12c.18-.01.33.14.33.32Z"/>
    <path class="cls-1" d="m37.92,1.44c0-.2.17-.37.37-.37h1.52c1.4,0,2.37.87,2.37,2.17s-.96,2.17-2.37,2.17h-1.52c-.2,0-.37-.17-.37-.37V1.44Zm1.86,3.28c.97,0,1.59-.59,1.59-1.48s-.63-1.48-1.59-1.48h-1.05v2.98h1.05Z"/>
    <path class="cls-1" d="m20.89,11.98l-.78-1.12c-.06.01-.11.01-.17.01h-.98v.91c0,.19-.16.35-.35.35h-.09c-.19,0-.35-.16-.35-.35v-3.53c0-.25.2-.45.45-.45h1.33c1.14,0,1.85.59,1.85,1.54,0,.66-.33,1.14-.92,1.37l.61.87c.16.23,0,.55-.29.55h0c-.13,0-.24-.06-.3-.15Zm-.99-3.51h-.94v1.74h.94c.71,0,1.07-.32,1.07-.87.01-.54-.36-.87-1.07-.87Z"/>
    <path class="cls-1" d="m22.37,9.97c0-1.28.99-2.23,2.34-2.23s2.34.94,2.34,2.23-.99,2.23-2.34,2.23c-1.34,0-2.34-.95-2.34-2.23Zm3.86,0c0-.89-.65-1.52-1.52-1.52s-1.52.64-1.52,1.52.65,1.52,1.52,1.52c.87,0,1.52-.64,1.52-1.52Z"/>
    <path class="cls-1" d="m31.76,10.95c0,.75-.59,1.18-1.69,1.18h-1.66c-.27,0-.48-.22-.48-.48v-3.36c0-.27.22-.48.48-.48h1.54c1.04,0,1.59.44,1.59,1.13,0,.44-.22.78-.55.96.46.13.78.49.78,1.06Zm-3.05-2.53v1.2h1.14c.55,0,.88-.2.88-.6s-.31-.61-.88-.61h-1.14Zm2.24,2.45c0-.43-.33-.63-.94-.63h-1.3v1.25h1.3c.61,0,.94-.19.94-.63Z"/>
    <path class="cls-1" d="m32.31,9.97c0-1.28.99-2.23,2.34-2.23s2.34.94,2.34,2.23-.99,2.23-2.34,2.23c-1.35,0-2.34-.95-2.34-2.23Zm3.85,0c0-.89-.65-1.52-1.52-1.52s-1.52.64-1.52,1.52.65,1.52,1.52,1.52c.88,0,1.52-.64,1.52-1.52Z"/>
    <path class="cls-1" d="m38.66,8.47h-1.1c-.19,0-.34-.15-.34-.34h0c0-.19.15-.34.34-.34h3c.19,0,.34.15.34.34h0c0,.19-.15.34-.34.34h-1.1v3.32c0,.19-.15.34-.34.34h-.12c-.19,0-.34-.15-.34-.34v-3.32h.01Z"/>
    <path class="cls-1" d="m41.9,7.8h0c.22,0,.4.18.4.4v3.53c0,.22-.18.4-.4.4h0c-.22,0-.4-.18-.4-.4v-3.53c0-.22.18-.4.4-.4Z"/>
    <path class="cls-1" d="m43.17,9.97c0-1.29.99-2.23,2.32-2.23.54,0,1.03.15,1.4.43.18.13.2.4.04.55h0c-.12.12-.32.13-.45.03-.27-.21-.59-.31-.94-.31-.9,0-1.55.64-1.55,1.52s.65,1.52,1.55,1.52c.35,0,.67-.1.94-.31.14-.11.33-.09.46.03h0c.16.15.15.41-.02.54-.38.29-.87.44-1.42.44-1.33,0-2.33-.94-2.33-2.23Z"/>
    <path class="cls-1" d="m47.7,11.42h0c.08-.18.29-.26.46-.17.32.17.73.28,1.13.28.68,0,.96-.24.96-.56,0-.94-2.57-.32-2.57-1.94,0-.7.55-1.29,1.75-1.29.39,0,.81.08,1.15.22.17.07.25.27.18.44h0c-.07.17-.27.26-.44.19-.3-.13-.61-.19-.89-.19-.67,0-.94.26-.94.59,0,.93,2.57.32,2.57,1.92,0,.7-.56,1.29-1.76,1.29-.53,0-1.07-.13-1.45-.34-.16-.09-.22-.28-.15-.43Z"/>
    <path class="cls-1" d="m21.5,16.64h0c.21,0,.38.17.38.38v1.35c-.45.36-1.08.55-1.69.55-1.34,0-2.34-.94-2.34-2.23s.99-2.23,2.35-2.23c.56,0,1.06.15,1.44.43.17.13.18.38.03.53h-.01c-.12.13-.31.14-.45.04-.28-.2-.61-.3-.97-.3-.92,0-1.57.63-1.57,1.52s.65,1.52,1.56,1.52c.31,0,.62-.06.89-.22v-.97c.01-.22.18-.39.38-.39Z"/>
    <path class="cls-1" d="m25.67,18.7l-.78-1.12c-.06.01-.11.01-.17.01h-.98v.91c0,.19-.16.35-.35.35h-.09c-.19,0-.35-.16-.35-.35v-3.54c0-.24.19-.44.44-.44h1.34c1.14,0,1.85.59,1.85,1.54,0,.66-.33,1.14-.93,1.37l.61.87c.16.23,0,.55-.29.55h0c-.12.01-.22-.05-.29-.15Zm-.99-3.5h-.94v1.73h.94c.71,0,1.07-.32,1.07-.87.01-.53-.36-.86-1.07-.86Z"/>
    <path class="cls-1" d="m27.16,16.69c0-1.28.99-2.23,2.34-2.23s2.34.94,2.34,2.23-.99,2.23-2.34,2.23c-1.34,0-2.34-.95-2.34-2.23Zm3.86,0c0-.89-.65-1.52-1.52-1.52s-1.52.64-1.52,1.52.65,1.52,1.52,1.52c.88,0,1.52-.65,1.52-1.52Z"/>
    <path class="cls-1" d="m32.65,16.97v-2.05c0-.22.18-.39.39-.39h.01c.22,0,.39.18.39.39v2.02c0,.89.4,1.28,1.1,1.28s1.1-.38,1.1-1.28v-2.02c0-.22.18-.39.39-.39h0c.22,0,.39.18.39.39v2.05c0,1.26-.72,1.95-1.9,1.95-1.18.01-1.89-.68-1.89-1.95Z"/>
    <path class="cls-1" d="m41.21,16.07c0,.96-.71,1.54-1.85,1.54h-.98v.85c0,.22-.18.4-.4.4h0c-.22,0-.4-.18-.4-.4v-3.45c0-.26.21-.48.48-.48h1.3c1.14,0,1.85.58,1.85,1.54Zm-.82,0c0-.54-.36-.86-1.07-.86h-.94v1.73h.94c.71-.01,1.07-.32,1.07-.87Z"/>
  </g>
  <g>
    <path class="cls-1" d="m19.28,22.98c-.08.07-.2.11-.32.11-.28,0-.44-.16-.44-.44v-.93h-.27v-.17h.27v-.33h.2v.33h.46v.17h-.45v.91c0,.18.09.28.26.28.08,0,.17-.03.22-.08l.07.15Z"/>
    <path class="cls-1" d="m21.06,22.19v.89h-.2v-.87c0-.32-.17-.48-.45-.48-.33,0-.53.2-.53.55v.8h-.2v-2.16h.2v.9c.11-.18.31-.28.58-.28.36,0,.62.21.62.66Z"/>
    <path class="cls-1" d="m22.96,22.37h-1.28c.02.32.26.53.61.53.18,0,.35-.07.46-.2l.12.13c-.14.16-.35.25-.59.25-.47,0-.8-.32-.8-.78s.31-.78.75-.78.74.31.74.78c-.01.01-.01.04-.01.06Zm-1.28-.15h1.08c-.03-.3-.24-.5-.54-.5-.29-.01-.5.2-.53.5Z"/>
    <path class="cls-1" d="m25.87,21.37l-.3.35c-.13-.16-.33-.26-.51-.26-.32,0-.56.25-.56.59s.24.6.56.6c.17,0,.37-.09.51-.24l.3.32c-.22.22-.54.37-.84.37-.62,0-1.07-.45-1.07-1.05s.46-1.03,1.09-1.03c.29.01.61.14.82.35Z"/>
    <path class="cls-1" d="m27.65,22.29c0,.48-.34.8-.86.8s-.86-.32-.86-.8.34-.8.86-.8.86.31.86.8Zm-1.2,0c0,.24.14.4.35.4s.35-.16.35-.4-.14-.4-.35-.4-.35.16-.35.4Z"/>
    <path class="cls-1" d="m29.64,22.3c0,.47-.28.8-.73.8-.2,0-.37-.08-.48-.22v.21h-.5v-2.16h.5v.8c.11-.14.27-.22.46-.22.45-.01.75.3.75.8Zm-.5-.02c0-.24-.14-.4-.35-.4s-.34.17-.34.4.14.41.34.41c.21,0,.35-.17.35-.41Z"/>
    <path class="cls-1" d="m30.42,21.06c0,.16-.11.26-.26.26s-.26-.11-.26-.26.11-.26.26-.26.26.1.26.26Zm-.51,2.01v-1.56h.5v1.56h-.5Z"/>
    <path class="cls-1" d="m32.39,22.29c0,.48-.34.8-.86.8s-.86-.32-.86-.8.34-.8.86-.8.86.31.86.8Zm-1.2,0c0,.24.14.4.35.4s.35-.16.35-.4-.14-.4-.35-.4-.35.16-.35.4Z"/>
    <path class="cls-1" d="m33.67,22.99c-.11.07-.26.11-.41.11-.3,0-.52-.17-.52-.49v-.7h-.22v-.33h.22v-.43h.5v.43h.41v.33h-.41v.62c0,.12.05.17.14.17.05,0,.12-.02.19-.05l.1.34Z"/>
    <path class="cls-2" d="m35.84,23.07h-.62l-.43-.65-.43.65h-.61l.73-1.04-.68-.99h.61l.39.6.39-.6h.61l-.68.97.72,1.06Z"/>
    <path class="cls-1" d="m36.75,22.31c0-.45.33-.78.79-.78.26,0,.47.1.6.3l-.15.1c-.1-.15-.26-.22-.44-.22-.33,0-.58.24-.58.6s.24.6.58.6c.18,0,.34-.07.44-.22l.15.1c-.12.2-.34.3-.6.3-.45,0-.79-.32-.79-.78Z"/>
    <path class="cls-1" d="m38.36,22.31c0-.45.33-.78.78-.78s.78.32.78.78-.33.78-.78.78-.78-.32-.78-.78Zm1.34,0c0-.35-.24-.6-.56-.6s-.56.24-.56.6.24.6.56.6.56-.24.56-.6Z"/>
    <path class="cls-1" d="m42.85,22.19v.89h-.2v-.87c0-.32-.16-.48-.43-.48-.31,0-.51.2-.51.55v.8h-.2v-.87c0-.32-.16-.48-.44-.48-.31,0-.51.2-.51.55v.8h-.2v-1.52h.2v.28c.11-.18.3-.29.56-.29s.45.11.54.32c.11-.2.33-.32.61-.32.35-.01.6.2.6.65Z"/>
    <path class="cls-1" d="m44.96,22.31c0,.46-.32.78-.76.78-.24,0-.45-.1-.59-.3v.85h-.2v-2.09h.2v.3c.12-.2.33-.31.59-.31.43,0,.76.31.76.78Zm-.2,0c0-.35-.24-.6-.56-.6s-.56.24-.56.6.24.6.56.6.56-.24.56-.6Z"/>
    <path class="cls-1" d="m46.52,22.13v.95h-.2v-.24c-.09.16-.27.25-.52.25-.34,0-.55-.18-.55-.44,0-.23.15-.43.59-.43h.48v-.09c0-.26-.15-.4-.43-.4-.2,0-.38.07-.5.18l-.09-.15c.15-.13.38-.2.63-.2.39-.01.62.18.62.59Zm-.2.48v-.25h-.48c-.29,0-.39.12-.39.27,0,.18.14.29.38.29s.41-.11.49-.31Z"/>
    <path class="cls-1" d="m48.49,22.19v.89h-.2v-.87c0-.32-.17-.48-.45-.48-.33,0-.53.2-.53.55v.8h-.2v-1.52h.2v.28c.11-.18.31-.29.59-.29.35-.01.61.2.61.65Z"/>
    <path class="cls-1" d="m50.31,21.55l-.77,1.71c-.13.3-.29.39-.5.39-.14,0-.28-.05-.37-.14l.1-.15c.07.07.17.12.28.12.14,0,.23-.06.31-.25l.07-.15-.69-1.52h.21l.58,1.3.58-1.3h.2Z"/>
  </g>
  <g>
    <path class="cls-3" d="m4.09,13.62l-2.3,2.3c-.08.08-.13.19-.13.31,0,.12.05.23.13.31l5.88,5.88c.17.17.45.17.62,0l5.88-5.88c.17-.17.17-.45,0-.62l-2.27-2.27c-1.16.73-2.5,1.12-3.89,1.12s-2.76-.39-3.93-1.14Z"/>
    <path class="cls-3" d="m10.82,12.53l-2.6-2.6c-.13-.13-.34-.13-.47,0l-2.57,2.57c.86.49,1.83.74,2.84.74s1.95-.25,2.8-.72Z"/>
    <path class="cls-2" d="m15.26,14.84l-2.15-2.15c-.05.07-.61.54-1.08.88-.05.04-.08.06-.11.08l2.27,2.27c.17.17.17.45,0,.62l-5.88,5.88c-.17.17-.45.17-.62,0l-5.88-5.88c-.08-.08-.13-.19-.13-.31,0-.12.05-.23.13-.31l2.3-2.3c-.48-.3-1.03-.81-1.18-.96l-2.19,2.19c-.37.37-.57.86-.57,1.39,0,.52.2,1.02.57,1.39l5.88,5.88c.38.38.88.57,1.38.57.5,0,1-.19,1.38-.57l5.88-5.88c.76-.76.76-2.01,0-2.77Z"/>
    <g>
      <path class="cls-3" d="m7.75,9.93l-2.57,2.57c.86.49,1.83.74,2.84.74s1.95-.25,2.8-.72l-2.6-2.6c-.13-.13-.34-.13-.47,0Z"/>
      <path class="cls-3" d="m9.3,8.86l2.74,2.74c1.19-1.14,1.85-2.76,1.79-4.43-.06-1.48-.68-2.88-1.76-3.93-1.08-1.05-2.49-1.64-3.97-1.66-1.57-.02-3.05.57-4.17,1.67-1.12,1.1-1.73,2.57-1.73,4.14s.63,3.08,1.76,4.17l2.71-2.71c.72-.72,1.9-.72,2.62,0Z"/>
      <path class="cls-2" d="m15.35,7.12c-.07-1.87-.86-3.63-2.21-4.96C11.78.84,10,.1,8.13.07c-1.98-.03-3.85.72-5.26,2.11C1.46,3.57.69,5.42.69,7.4s.8,3.88,2.22,5.26l1.06-1.09c-1.13-1.09-1.76-2.58-1.76-4.17s.62-3.04,1.73-4.14c1.12-1.1,2.6-1.7,4.17-1.67,1.48.02,2.89.61,3.97,1.66,1.08,1.05,1.7,2.44,1.76,3.93.06,1.67-.6,3.28-1.79,4.43l.5.5s.56.59.56.59c1.5-1.44,2.33-3.47,2.25-5.57Z"/>
      <path class="cls-1" d="m12.04,11.6l-2.74-2.74c-.72-.72-1.9-.72-2.62,0l-2.71,2.71-1.06,1.09c.16.15.71.66,1.18.96,1.17.75,2.52,1.14,3.93,1.14s2.73-.38,3.89-1.12c.02-.02.06-.04.11-.08.47-.34,1.03-.81,1.08-.88,0,0-.52-.55-.56-.59l-.5-.5Zm-4.02,1.64c-1.01,0-1.98-.26-2.84-.74l2.57-2.57c.13-.13.34-.13.47,0l2.6,2.6c-.85.47-1.81.72-2.8.72Z"/>
    </g>
  </g>
</svg>