<?xml version="1.0" encoding="UTF-8"?>
<svg id="Calque_1" data-name="Calque 1" xmlns="http://www.w3.org/2000/svg" viewBox="0 0 50.92 24">
  <defs>
    <style>
      .cls-1 {
        opacity: .38;
      }

      .cls-1, .cls-2 {
        fill: #fff;
        stroke-width: 0px;
      }
    </style>
  </defs>
  <g>
    <path class="cls-2" d="m19.17,4.82v-1.73c0-.19.15-.33.33-.33h0c.19,0,.33.15.33.33v1.7c0,.75.34,1.08.92,1.08s.92-.32.92-1.08v-1.7c0-.19.15-.33.33-.33h0c.19,0,.33.15.33.33v1.72c0,1.06-.6,1.64-1.59,1.64-.98,0-1.59-.57-1.59-1.63Z"/>
    <path class="cls-2" d="m26.55,3.1v2.93c0,.21-.17.38-.38.38h0c-.11,0-.22-.05-.3-.14l-1.9-2.33v2.13c0,.19-.15.34-.34.34h0c-.19,0-.34-.15-.34-.34v-2.93c0-.21.17-.38.38-.38h0c.11,0,.22.05.3.14l1.9,2.33v-2.13c0-.19.15-.34.34-.34h0c.19,0,.34.15.34.34Z"/>
    <path class="cls-2" d="m27.86,2.76h0c.19,0,.34.15.34.34v2.97c0,.19-.15.34-.34.34h0c-.19,0-.34-.15-.34-.34v-2.97c0-.19.15-.34.34-.34Z"/>
    <path class="cls-2" d="m29.92,3.33h-.92c-.16,0-.29-.13-.29-.29h0c0-.16.13-.29.29-.29h2.52c.16,0,.29.13.29.29h0c0,.16-.13.29-.29.29h-.92v2.78c0,.16-.13.29-.29.29h-.1c-.16,0-.29-.13-.29-.29v-2.78h0Z"/>
    <path class="cls-2" d="m35.05,6.11h0c0,.16-.13.29-.28.29h-2.11c-.19,0-.35-.15-.35-.35v-2.95c0-.19.15-.35.35-.35h2.03c.15,0,.28.13.28.28h0c0,.16-.13.29-.28.29h-1.7v.95h1.48c.15,0,.28.13.28.28h0c0,.15-.13.28-.28.28h-1.48v1.01h1.78c.15,0,.28.12.28.27Z"/>
    <path class="cls-2" d="m35.81,3.07c0-.17.14-.31.31-.31h1.28c1.18,0,1.99.73,1.99,1.82s-.81,1.82-1.99,1.82h-1.28c-.17,0-.31-.14-.31-.31v-3.02Zm1.56,2.75c.81,0,1.34-.49,1.34-1.25s-.53-1.25-1.34-1.25h-.88v2.5h.88Z"/>
    <path class="cls-2" d="m21.5,11.93l-.65-.94c-.05,0-.09,0-.14,0h-.82v.76c0,.16-.14.3-.3.3h-.08c-.16,0-.3-.14-.3-.3v-2.97c0-.21.17-.38.38-.38h1.12c.96,0,1.55.49,1.55,1.3,0,.55-.28.96-.77,1.15l.51.73c.14.19,0,.47-.25.47h0c-.11,0-.2-.05-.25-.13Zm-.83-2.95h-.79v1.46h.79c.59,0,.9-.27.9-.73,0-.46-.31-.73-.9-.73Z"/>
    <path class="cls-2" d="m22.74,10.23c0-1.08.83-1.87,1.97-1.87s1.97.79,1.97,1.87-.83,1.87-1.97,1.87c-1.13,0-1.97-.8-1.97-1.87Zm3.25,0c0-.75-.54-1.28-1.28-1.28s-1.28.53-1.28,1.28.54,1.28,1.28,1.28c.73,0,1.28-.53,1.28-1.28Z"/>
    <path class="cls-2" d="m30.63,11.06c0,.63-.49.99-1.42.99h-1.4c-.23,0-.41-.19-.41-.41v-2.82c0-.23.19-.41.41-.41h1.3c.87,0,1.34.37,1.34.95,0,.37-.19.65-.47.81.39.11.65.42.65.89Zm-2.56-2.13v1.01h.96c.47,0,.74-.17.74-.5s-.26-.51-.74-.51h-.96Zm1.88,2.06c0-.36-.28-.53-.79-.53h-1.09v1.05h1.09c.51,0,.79-.16.79-.53Z"/>
    <path class="cls-2" d="m31.09,10.23c0-1.08.83-1.87,1.97-1.87s1.97.79,1.97,1.87-.83,1.87-1.97,1.87c-1.14,0-1.97-.8-1.97-1.87Zm3.24,0c0-.75-.54-1.28-1.28-1.28s-1.28.53-1.28,1.28.54,1.28,1.28,1.28c.74,0,1.28-.53,1.28-1.28Z"/>
    <path class="cls-2" d="m36.42,8.98h-.92c-.16,0-.29-.13-.29-.29h0c0-.16.13-.29.29-.29h2.52c.16,0,.29.13.29.29h0c0,.16-.13.29-.29.29h-.92v2.79c0,.16-.13.29-.29.29h-.1c-.16,0-.29-.13-.29-.29v-2.79h0Z"/>
    <path class="cls-2" d="m39.15,8.41h0c.19,0,.34.15.34.34v2.97c0,.19-.15.34-.34.34h0c-.19,0-.34-.15-.34-.34v-2.97c0-.19.15-.34.34-.34Z"/>
    <path class="cls-2" d="m40.21,10.23c0-1.09.83-1.87,1.95-1.87.46,0,.86.13,1.18.36.15.11.17.34.03.47h0c-.1.1-.27.11-.38.03-.23-.18-.49-.26-.79-.26-.75,0-1.31.53-1.31,1.28s.54,1.28,1.31,1.28c.3,0,.56-.08.79-.26.12-.09.28-.08.39.03h0c.14.13.13.35-.02.46-.32.25-.73.37-1.2.37-1.12,0-1.96-.79-1.96-1.87Z"/>
    <path class="cls-2" d="m44.03,11.45h0c.07-.15.25-.22.39-.14.27.14.61.24.95.24.57,0,.81-.2.81-.47,0-.79-2.16-.27-2.16-1.63,0-.58.47-1.09,1.47-1.09.33,0,.68.07.97.19.14.06.21.23.15.37h0c-.06.14-.23.22-.37.16-.25-.11-.51-.16-.75-.16-.56,0-.79.22-.79.49,0,.78,2.16.27,2.16,1.61,0,.58-.47,1.09-1.47,1.09-.45,0-.9-.11-1.22-.29-.14-.08-.19-.24-.13-.36Z"/>
    <path class="cls-2" d="m22.01,15.84h0c.18,0,.32.14.32.32v1.14c-.38.31-.91.47-1.42.47-1.13,0-1.97-.79-1.97-1.87s.83-1.87,1.98-1.87c.47,0,.89.13,1.21.36.14.11.15.32.03.45h0c-.1.11-.26.12-.38.03-.24-.17-.51-.25-.81-.25-.77,0-1.32.53-1.32,1.28s.54,1.28,1.31,1.28c.26,0,.52-.05.75-.19v-.81c0-.19.15-.33.32-.33Z"/>
    <path class="cls-2" d="m25.51,17.57l-.65-.94c-.05,0-.09,0-.14,0h-.82v.76c0,.16-.14.3-.3.3h-.08c-.16,0-.3-.14-.3-.3v-2.98c0-.2.16-.37.37-.37h1.13c.96,0,1.55.49,1.55,1.3,0,.55-.28.96-.78,1.15l.51.73c.14.19,0,.47-.25.47h0c-.1,0-.19-.04-.25-.13Zm-.83-2.94h-.79v1.45h.79c.59,0,.9-.27.9-.73,0-.45-.31-.72-.9-.72Z"/>
    <path class="cls-2" d="m26.76,15.89c0-1.08.83-1.87,1.97-1.87s1.97.79,1.97,1.87-.83,1.87-1.97,1.87c-1.13,0-1.97-.8-1.97-1.87Zm3.25,0c0-.75-.54-1.28-1.28-1.28s-1.28.53-1.28,1.28.54,1.28,1.28,1.28c.74,0,1.28-.54,1.28-1.28Z"/>
    <path class="cls-2" d="m31.38,16.12v-1.72c0-.19.15-.33.33-.33h0c.19,0,.33.15.33.33v1.7c0,.75.34,1.08.92,1.08s.92-.32.92-1.08v-1.7c0-.19.15-.33.33-.33h0c.19,0,.33.15.33.33v1.72c0,1.06-.6,1.64-1.59,1.64-.99,0-1.59-.57-1.59-1.64Z"/>
    <path class="cls-2" d="m38.57,15.36c0,.81-.59,1.3-1.55,1.3h-.82v.71c0,.19-.15.34-.34.34h0c-.19,0-.34-.15-.34-.34v-2.9c0-.22.18-.41.41-.41h1.09c.96,0,1.55.48,1.55,1.3Zm-.69,0c0-.46-.31-.72-.9-.72h-.79v1.45h.79c.59,0,.9-.27.9-.73Z"/>
  </g>
  <g>
    <path class="cls-2" d="m20.14,21.17c-.07.06-.17.09-.27.09-.24,0-.37-.14-.37-.37v-.78h-.23v-.14h.23v-.28h.17v.28h.39v.14h-.38v.76c0,.15.08.24.22.24.07,0,.14-.03.19-.07l.06.13Z"/>
    <path class="cls-2" d="m21.64,20.51v.75h-.17v-.73c0-.27-.14-.41-.38-.41-.28,0-.45.17-.45.47v.67h-.17v-1.81h.17v.75c.09-.15.26-.24.48-.24.31,0,.52.18.52.55Z"/>
    <path class="cls-2" d="m23.23,20.66h-1.08c.02.27.22.45.51.45.15,0,.3-.06.39-.17l.1.11c-.12.14-.3.21-.49.21-.4,0-.67-.27-.67-.65s.26-.65.63-.65.62.26.62.65c0,0,0,.03,0,.05Zm-1.08-.13h.91c-.03-.25-.2-.42-.46-.42-.25,0-.42.17-.45.42Z"/>
    <path class="cls-2" d="m25.68,19.81l-.25.3c-.11-.14-.28-.22-.43-.22-.27,0-.47.21-.47.49s.2.5.47.5c.14,0,.31-.08.43-.2l.25.27c-.19.19-.46.31-.7.31-.52,0-.9-.38-.9-.88s.39-.86.92-.86c.25,0,.51.12.69.3Z"/>
    <path class="cls-2" d="m27.18,20.59c0,.41-.29.67-.72.67s-.72-.27-.72-.67.29-.67.72-.67.72.26.72.67Zm-1.01,0c0,.2.12.34.3.34s.3-.14.3-.34-.12-.34-.3-.34-.3.14-.3.34Z"/>
    <path class="cls-2" d="m28.85,20.6c0,.4-.24.67-.61.67-.17,0-.31-.07-.41-.19v.18h-.42v-1.81h.42v.67c.09-.12.23-.19.39-.19.38,0,.63.25.63.67Zm-.42-.02c0-.2-.12-.34-.3-.34s-.29.14-.29.34.12.35.29.35c.18,0,.3-.14.3-.35Z"/>
    <path class="cls-2" d="m29.51,19.56c0,.14-.09.22-.22.22s-.22-.09-.22-.22.09-.22.22-.22.22.08.22.22Zm-.43,1.69v-1.31h.42v1.31h-.42Z"/>
    <path class="cls-2" d="m31.16,20.59c0,.41-.29.67-.72.67s-.72-.27-.72-.67.29-.67.72-.67.72.26.72.67Zm-1.01,0c0,.2.12.34.3.34s.3-.14.3-.34-.12-.34-.3-.34-.3.14-.3.34Z"/>
    <path class="cls-2" d="m32.24,21.18c-.09.06-.22.09-.35.09-.25,0-.44-.14-.44-.42v-.58h-.19v-.28h.19v-.36h.42v.36h.35v.28h-.35v.52c0,.1.04.14.12.14.04,0,.1-.02.16-.04l.08.29Z"/>
    <path class="cls-1" d="m34.06,21.24h-.52l-.36-.54-.36.54h-.51l.61-.87-.57-.83h.51l.33.5.33-.5h.51l-.57.81.6.89Z"/>
    <path class="cls-2" d="m34.82,20.61c0-.38.28-.65.66-.65.22,0,.4.08.5.25l-.13.08c-.08-.13-.22-.19-.37-.19-.28,0-.48.2-.48.5s.2.5.48.5c.15,0,.29-.06.37-.19l.13.08c-.1.17-.29.25-.5.25-.38,0-.66-.27-.66-.65Z"/>
    <path class="cls-2" d="m36.18,20.61c0-.38.28-.65.65-.65s.65.27.65.65-.28.65-.65.65-.65-.27-.65-.65Zm1.13,0c0-.3-.2-.5-.47-.5s-.47.2-.47.5.2.5.47.5.47-.2.47-.5Z"/>
    <path class="cls-2" d="m39.95,20.51v.75h-.17v-.73c0-.27-.14-.41-.36-.41-.26,0-.43.17-.43.47v.67h-.17v-.73c0-.27-.14-.41-.37-.41-.26,0-.43.17-.43.47v.67h-.17v-1.28h.17v.24c.09-.15.25-.25.47-.25s.38.09.46.27c.09-.17.28-.27.51-.27.3,0,.5.17.5.54Z"/>
    <path class="cls-2" d="m41.72,20.61c0,.39-.27.65-.64.65-.2,0-.38-.08-.49-.25v.71h-.17v-1.75h.17v.25c.1-.17.28-.26.49-.26.36,0,.64.26.64.65Zm-.17,0c0-.3-.2-.5-.47-.5s-.47.2-.47.5.2.5.47.5.47-.2.47-.5Z"/>
    <path class="cls-2" d="m43.04,20.46v.8h-.17v-.2c-.08.14-.23.21-.44.21-.29,0-.47-.15-.47-.37,0-.19.13-.36.49-.36h.41v-.08c0-.22-.13-.34-.36-.34-.17,0-.32.06-.42.15l-.08-.13c.13-.11.32-.17.53-.17.33,0,.52.15.52.49Zm-.17.41v-.21h-.41c-.25,0-.33.1-.33.23,0,.15.12.25.32.25s.35-.09.42-.26Z"/>
    <path class="cls-2" d="m44.69,20.51v.75h-.17v-.73c0-.27-.14-.41-.38-.41-.28,0-.45.17-.45.47v.67h-.17v-1.28h.17v.24c.09-.15.26-.25.49-.25.3,0,.51.17.51.54Z"/>
    <path class="cls-2" d="m46.21,19.96l-.64,1.44c-.11.25-.25.33-.42.33-.12,0-.24-.04-.31-.12l.08-.13c.06.06.14.1.24.1.12,0,.19-.05.26-.21l.06-.13-.58-1.28h.18l.48,1.09.48-1.09h.17Z"/>
  </g>
  <g>
    <path class="cls-2" d="m16.76,14.33l-1.81-1.81c-.04.06-.51.45-.91.74-.04.03-.07.05-.09.07l1.91,1.91c.14.14.14.38,0,.52l-4.94,4.94c-.14.14-.38.14-.52,0l-4.94-4.94c-.07-.07-.11-.16-.11-.26,0-.1.04-.19.11-.26l1.93-1.93c-.4-.25-.86-.68-1-.81l-1.84,1.84c-.31.31-.48.72-.48,1.16,0,.44.17.85.48,1.16l4.94,4.94c.32.32.74.48,1.16.48.42,0,.84-.16,1.16-.48l4.94-4.94c.64-.64.64-1.69,0-2.33Z"/>
    <g>
      <path class="cls-2" d="m16.84,7.84c-.06-1.57-.72-3.05-1.86-4.16-1.14-1.11-2.63-1.74-4.21-1.76-1.66-.02-3.23.61-4.42,1.77-1.18,1.17-1.84,2.73-1.84,4.39s.67,3.26,1.86,4.42l.89-.91c-.95-.92-1.48-2.16-1.48-3.5s.52-2.55,1.46-3.48c.94-.93,2.18-1.43,3.5-1.41,1.25.02,2.43.51,3.34,1.4.9.88,1.43,2.05,1.48,3.3.05,1.41-.5,2.76-1.5,3.72l.42.42s.47.5.47.5c1.26-1.21,1.96-2.92,1.89-4.68Z"/>
      <path class="cls-1" d="m14.06,11.61l-2.31-2.31c-.61-.61-1.59-.61-2.2,0l-2.28,2.28-.89.91c.13.13.59.55,1,.81.99.63,2.12.96,3.3.96s2.29-.32,3.27-.94c.02-.01.05-.04.09-.07.4-.29.87-.68.91-.74,0,0-.44-.46-.47-.5l-.42-.42Zm-3.38,1.38c-.85,0-1.66-.21-2.39-.62l2.16-2.16c.11-.11.29-.11.39,0l2.18,2.18c-.72.4-1.52.6-2.35.6Z"/>
    </g>
  </g>
</svg>
