<?xml version="1.0" encoding="UTF-8"?>
<svg id="Calque_1" data-name="Calque 1" xmlns="http://www.w3.org/2000/svg" viewBox="0 0 50.92 24">
  <defs>
    <style>
      .cls-1 {
        opacity: .38;
      }

      .cls-1, .cls-2 {
        fill: #fff;
        stroke-width: 0px;
      }
    </style>
  </defs>
  <g>
    <path class="cls-2" d="m19.76,5.49v-1.57c0-.17.14-.3.3-.3h0c.17,0,.3.14.3.3v1.54c0,.68.31.98.84.98s.84-.29.84-.98v-1.54c0-.17.14-.3.3-.3h0c.17,0,.3.14.3.3v1.56c0,.96-.55,1.48-1.44,1.48-.89,0-1.44-.51-1.44-1.47Z"/>
    <path class="cls-2" d="m26.45,3.94v2.66c0,.19-.15.35-.35.35h0c-.1,0-.2-.05-.27-.12l-1.72-2.11v1.93c0,.17-.14.31-.31.31h0c-.17,0-.31-.14-.31-.31v-2.66c0-.19.15-.35.35-.35h0c.1,0,.2.05.27.12l1.72,2.11v-1.93c0-.17.14-.31.31-.31h0c.17,0,.31.14.31.31Z"/>
    <path class="cls-2" d="m27.64,3.63h0c.17,0,.31.14.31.31v2.69c0,.17-.14.31-.31.31h0c-.17,0-.31-.14-.31-.31v-2.69c0-.17.14-.31.31-.31Z"/>
    <path class="cls-2" d="m29.5,4.15h-.84c-.15,0-.26-.12-.26-.26h0c0-.15.12-.26.26-.26h2.28c.15,0,.26.12.26.26h0c0,.15-.12.26-.26.26h-.84v2.52c0,.15-.12.26-.26.26h-.09c-.15,0-.26-.12-.26-.26v-2.52h0Z"/>
    <path class="cls-2" d="m34.15,6.67h0c0,.15-.12.26-.25.26h-1.91c-.17,0-.31-.14-.31-.31v-2.67c0-.17.14-.31.31-.31h1.84c.14,0,.25.12.25.25h0c0,.15-.12.26-.25.26h-1.54v.86h1.34c.14,0,.25.12.25.25h0c0,.14-.12.25-.25.25h-1.34v.91h1.61c.14,0,.25.11.25.25Z"/>
    <path class="cls-2" d="m34.83,3.91c0-.15.13-.28.28-.28h1.16c1.07,0,1.8.66,1.8,1.65s-.73,1.65-1.8,1.65h-1.16c-.15,0-.28-.13-.28-.28v-2.73Zm1.41,2.5c.74,0,1.21-.45,1.21-1.13s-.48-1.13-1.21-1.13h-.8v2.26h.8Z"/>
    <path class="cls-2" d="m21.87,11.94l-.59-.85s-.08,0-.13,0h-.74v.69c0,.15-.12.27-.27.27h-.07c-.15,0-.27-.12-.27-.27v-2.69c0-.19.15-.35.35-.35h1.01c.87,0,1.4.45,1.4,1.17,0,.5-.25.87-.7,1.04l.46.66c.12.18,0,.42-.22.42h0c-.1,0-.18-.05-.23-.12Zm-.75-2.67h-.71v1.32h.71c.54,0,.81-.25.81-.66,0-.41-.28-.66-.81-.66Z"/>
    <path class="cls-2" d="m23,10.4c0-.98.75-1.7,1.78-1.7s1.78.71,1.78,1.7-.75,1.7-1.78,1.7c-1.02,0-1.78-.72-1.78-1.7Zm2.94,0c0-.68-.49-1.16-1.16-1.16s-1.16.48-1.16,1.16.49,1.16,1.16,1.16c.66,0,1.16-.48,1.16-1.16Z"/>
    <path class="cls-2" d="m30.14,11.15c0,.57-.45.9-1.29.9h-1.27c-.21,0-.37-.17-.37-.37v-2.56c0-.21.17-.37.37-.37h1.17c.79,0,1.21.34,1.21.86,0,.34-.17.59-.42.73.35.1.59.38.59.81Zm-2.32-1.93v.91h.87c.42,0,.67-.15.67-.45s-.24-.46-.67-.46h-.87Zm1.7,1.87c0-.33-.25-.48-.71-.48h-.99v.95h.99c.46,0,.71-.15.71-.48Z"/>
    <path class="cls-2" d="m30.56,10.4c0-.98.75-1.7,1.78-1.7s1.78.71,1.78,1.7-.75,1.7-1.78,1.7c-1.03,0-1.78-.72-1.78-1.7Zm2.93,0c0-.68-.49-1.16-1.16-1.16s-1.16.48-1.16,1.16.49,1.16,1.16,1.16c.67,0,1.16-.48,1.16-1.16Z"/>
    <path class="cls-2" d="m35.39,9.26h-.84c-.15,0-.26-.12-.26-.26h0c0-.15.12-.26.26-.26h2.28c.15,0,.26.12.26.26h0c0,.15-.12.26-.26.26h-.84v2.53c0,.15-.12.26-.26.26h-.09c-.15,0-.26-.12-.26-.26v-2.53h0Z"/>
    <path class="cls-2" d="m37.86,8.75h0c.17,0,.31.14.31.31v2.69c0,.17-.14.31-.31.31h0c-.17,0-.31-.14-.31-.31v-2.69c0-.17.14-.31.31-.31Z"/>
    <path class="cls-2" d="m38.82,10.4c0-.98.75-1.7,1.77-1.7.41,0,.78.12,1.07.33.14.1.15.31.03.42h0c-.09.09-.25.1-.35.02-.21-.16-.45-.24-.71-.24-.68,0-1.18.48-1.18,1.16s.49,1.16,1.18,1.16c.27,0,.51-.08.71-.24.11-.08.25-.07.35.02h0c.12.12.12.31-.02.41-.29.22-.66.34-1.08.34-1.01,0-1.77-.71-1.77-1.7Z"/>
    <path class="cls-2" d="m42.28,11.51h0c.06-.14.22-.2.35-.13.25.13.55.21.86.21.51,0,.73-.18.73-.43,0-.71-1.96-.25-1.96-1.47,0-.53.42-.98,1.33-.98.3,0,.61.06.88.17.13.05.19.21.14.34h0c-.05.13-.21.2-.34.15-.23-.1-.46-.15-.68-.15-.51,0-.71.2-.71.45,0,.71,1.96.25,1.96,1.46,0,.53-.43.98-1.34.98-.41,0-.81-.1-1.11-.26-.12-.07-.17-.21-.12-.33Z"/>
    <path class="cls-2" d="m22.33,15.48h0c.16,0,.29.13.29.29v1.03c-.35.28-.82.42-1.29.42-1.02,0-1.78-.71-1.78-1.7s.75-1.7,1.79-1.7c.43,0,.81.12,1.1.33.13.1.14.29.02.41h0c-.09.1-.24.11-.35.03-.21-.15-.46-.23-.74-.23-.7,0-1.2.48-1.2,1.16s.49,1.16,1.19,1.16c.24,0,.47-.05.68-.17v-.74c0-.17.14-.3.29-.3Z"/>
    <path class="cls-2" d="m25.51,17.05l-.59-.85s-.08,0-.13,0h-.74v.69c0,.15-.12.27-.27.27h-.07c-.15,0-.27-.12-.27-.27v-2.69c0-.18.15-.34.34-.34h1.02c.87,0,1.4.45,1.4,1.17,0,.5-.25.87-.71,1.04l.46.66c.12.18,0,.42-.22.42h0c-.09,0-.17-.04-.22-.12Zm-.75-2.66h-.71v1.31h.71c.54,0,.81-.25.81-.66,0-.41-.28-.65-.81-.65Z"/>
    <path class="cls-2" d="m26.64,15.52c0-.98.75-1.7,1.78-1.7s1.78.71,1.78,1.7-.75,1.7-1.78,1.7c-1.02,0-1.78-.72-1.78-1.7Zm2.94,0c0-.68-.49-1.16-1.16-1.16s-1.16.48-1.16,1.16.49,1.16,1.16,1.16c.67,0,1.16-.49,1.16-1.16Z"/>
    <path class="cls-2" d="m30.82,15.73v-1.56c0-.17.14-.3.3-.3h0c.17,0,.3.14.3.3v1.54c0,.68.31.98.84.98s.84-.29.84-.98v-1.54c0-.17.14-.3.3-.3h0c.17,0,.3.14.3.3v1.56c0,.96-.55,1.48-1.44,1.48-.9,0-1.44-.51-1.44-1.48Z"/>
    <path class="cls-2" d="m37.33,15.04c0,.73-.54,1.17-1.4,1.17h-.74v.64c0,.17-.14.31-.31.31h0c-.17,0-.31-.14-.31-.31v-2.63c0-.2.16-.37.37-.37h.99c.87,0,1.4.44,1.4,1.17Zm-.62,0c0-.41-.28-.65-.81-.65h-.71v1.31h.71c.54,0,.81-.25.81-.66Z"/>
  </g>
  <g>
    <path class="cls-2" d="m20.64,20.3c-.06.05-.15.08-.25.08-.21,0-.34-.12-.34-.34v-.71h-.21v-.13h.21v-.25h.15v.25h.35v.13h-.35v.69c0,.14.07.21.2.21.06,0,.13-.02.17-.06l.05.12Z"/>
    <path class="cls-2" d="m22,19.7v.68h-.15v-.66c0-.25-.13-.37-.35-.37-.25,0-.41.15-.41.42v.61h-.15v-1.64h.15v.68c.08-.14.24-.21.44-.21.28,0,.47.16.47.5Z"/>
    <path class="cls-2" d="m23.44,19.84h-.98c.02.25.2.41.46.41.14,0,.27-.05.35-.15l.09.1c-.11.12-.27.19-.45.19-.36,0-.61-.25-.61-.59s.24-.59.57-.59.56.24.56.59c0,0,0,.03,0,.05Zm-.98-.12h.82c-.02-.23-.18-.38-.41-.38-.22,0-.38.15-.41.38Z"/>
    <path class="cls-2" d="m25.66,19.07l-.23.27c-.1-.12-.25-.2-.39-.2-.25,0-.43.19-.43.45s.18.45.43.45c.13,0,.28-.07.39-.18l.23.25c-.17.17-.41.28-.64.28-.47,0-.81-.35-.81-.8s.35-.78.83-.78c.22,0,.46.11.62.27Z"/>
    <path class="cls-2" d="m27.01,19.78c0,.37-.26.61-.65.61s-.65-.25-.65-.61.26-.61.65-.61.65.24.65.61Zm-.91,0c0,.18.11.31.27.31s.27-.12.27-.31-.11-.31-.27-.31-.27.12-.27.31Z"/>
    <path class="cls-2" d="m28.53,19.79c0,.36-.21.61-.55.61-.15,0-.28-.06-.37-.17v.16h-.38v-1.64h.38v.61c.08-.11.21-.17.35-.17.35,0,.57.23.57.61Zm-.38-.02c0-.18-.11-.31-.27-.31s-.26.13-.26.31.11.31.26.31c.16,0,.27-.13.27-.31Z"/>
    <path class="cls-2" d="m29.13,18.84c0,.12-.08.2-.2.2s-.2-.08-.2-.2.08-.2.2-.2.2.08.2.2Zm-.39,1.53v-1.19h.38v1.19h-.38Z"/>
    <path class="cls-2" d="m30.62,19.78c0,.37-.26.61-.65.61s-.65-.25-.65-.61.26-.61.65-.61.65.24.65.61Zm-.91,0c0,.18.11.31.27.31s.27-.12.27-.31-.11-.31-.27-.31-.27.12-.27.31Z"/>
    <path class="cls-2" d="m31.6,20.31c-.08.05-.2.08-.31.08-.23,0-.4-.13-.4-.38v-.53h-.17v-.25h.17v-.33h.38v.33h.31v.25h-.31v.47c0,.09.04.13.11.13.04,0,.09-.02.15-.04l.08.26Z"/>
    <path class="cls-1" d="m33.25,20.37h-.47l-.33-.49-.33.49h-.46l.55-.79-.51-.75h.46l.3.45.3-.45h.46l-.51.74.55.81Z"/>
    <path class="cls-2" d="m33.94,19.8c0-.35.25-.59.6-.59.2,0,.36.08.45.23l-.12.08c-.08-.12-.2-.17-.34-.17-.25,0-.44.18-.44.45s.18.45.44.45c.14,0,.26-.05.34-.17l.12.08c-.09.15-.26.23-.45.23-.35,0-.6-.25-.6-.59Z"/>
    <path class="cls-2" d="m35.17,19.8c0-.35.25-.59.59-.59s.59.25.59.59-.25.59-.59.59-.59-.25-.59-.59Zm1.02,0c0-.27-.18-.45-.43-.45s-.43.18-.43.45.18.45.43.45.43-.18.43-.45Z"/>
    <path class="cls-2" d="m38.58,19.7v.68h-.15v-.66c0-.25-.12-.37-.33-.37-.24,0-.39.15-.39.42v.61h-.15v-.66c0-.25-.12-.37-.34-.37-.24,0-.39.15-.39.42v.61h-.15v-1.16h.15v.21c.08-.14.23-.22.43-.22s.35.08.41.25c.08-.15.25-.25.46-.25.27,0,.45.15.45.49Z"/>
    <path class="cls-2" d="m40.19,19.8c0,.35-.25.59-.58.59-.18,0-.35-.08-.45-.23v.64h-.15v-1.59h.15v.23c.09-.15.25-.24.45-.24.33,0,.58.24.58.59Zm-.15,0c0-.27-.18-.45-.43-.45s-.43.18-.43.45.18.45.43.45.43-.18.43-.45Z"/>
    <path class="cls-2" d="m41.38,19.66v.72h-.15v-.18c-.07.12-.21.19-.4.19-.26,0-.42-.14-.42-.34,0-.18.12-.33.45-.33h.37v-.07c0-.2-.12-.31-.33-.31-.15,0-.29.05-.38.14l-.07-.12c.12-.1.29-.15.48-.15.3,0,.47.14.47.45Zm-.15.37v-.19h-.37c-.22,0-.3.09-.3.21,0,.14.11.22.29.22s.31-.08.38-.24Z"/>
    <path class="cls-2" d="m42.88,19.7v.68h-.15v-.66c0-.25-.13-.37-.35-.37-.25,0-.41.15-.41.42v.61h-.15v-1.16h.15v.21c.08-.14.24-.22.45-.22.27,0,.46.15.46.49Z"/>
    <path class="cls-2" d="m44.26,19.21l-.58,1.31c-.1.23-.22.3-.38.3-.11,0-.21-.04-.28-.11l.08-.12c.05.05.13.09.21.09.11,0,.18-.05.24-.19l.05-.12-.52-1.16h.16l.44.99.44-.99h.15Z"/>
  </g>
  <g>
    <path class="cls-2" d="m17.58,14.11l-1.64-1.64c-.04.05-.46.41-.82.67-.04.03-.06.05-.08.06l1.73,1.73c.13.13.13.34,0,.47l-4.48,4.48c-.13.13-.34.13-.47,0l-4.48-4.48c-.06-.06-.1-.15-.1-.24,0-.09.03-.17.1-.24l1.75-1.75c-.36-.23-.78-.62-.9-.73l-1.66,1.66c-.28.28-.44.66-.44,1.05,0,.4.16.77.44,1.05l4.48,4.48c.29.29.67.44,1.05.44.38,0,.76-.15,1.05-.44l4.48-4.48c.58-.58.58-1.53,0-2.11Z"/>
    <g>
      <path class="cls-2" d="m17.65,8.23c-.05-1.43-.65-2.77-1.68-3.77-1.03-1.01-2.39-1.57-3.81-1.59-1.51-.02-2.93.55-4,1.61-1.07,1.06-1.66,2.47-1.66,3.97s.61,2.95,1.69,4l.81-.83c-.86-.83-1.34-1.96-1.34-3.17s.47-2.31,1.32-3.15c.85-.84,1.98-1.29,3.17-1.27,1.13.02,2.2.47,3.02,1.26.82.8,1.29,1.86,1.34,2.99.05,1.27-.46,2.5-1.36,3.37l.38.38s.43.45.43.45c1.14-1.1,1.77-2.64,1.71-4.24Z"/>
      <path class="cls-1" d="m15.14,11.65l-2.09-2.09c-.55-.55-1.44-.55-1.99,0l-2.07,2.07-.81.83c.12.12.54.5.9.73.89.57,1.92.87,2.99.87s2.08-.29,2.96-.85c.02-.01.05-.03.08-.06.36-.26.78-.62.82-.67,0,0-.4-.42-.43-.45l-.38-.38Zm-3.06,1.25c-.77,0-1.51-.19-2.16-.56l1.96-1.96c.1-.1.26-.1.36,0l1.98,1.98c-.65.36-1.37.55-2.13.55Z"/>
    </g>
  </g>
</svg>
